<?xml version="1.0" standalone="no"?>
<!DOCTYPE svg PUBLIC "-//W3C//DTD SVG 20010904//EN"
 "http://www.w3.org/TR/2001/REC-SVG-20010904/DTD/svg10.dtd">
<svg version="1.0" xmlns="http://www.w3.org/2000/svg"
 width="500.000000pt" height="500.000000pt" viewBox="0 0 500.000000 500.000000"
 preserveAspectRatio="xMidYMid meet">
<metadata>
Created by potrace 1.14, written by Peter Selinger 2001-2017
</metadata>
<g transform="translate(0.000000,500.000000) scale(0.100000,-0.100000)"
fill="#000000" stroke="none">
<path d="M2607 4808 c-50 -77 -112 -195 -132 -253 -46 -134 -15 -280 78 -368
37 -35 42 -37 53 -22 7 9 17 46 24 83 17 102 30 144 43 139 6 -2 27 -50 47
-108 23 -64 42 -104 50 -104 23 0 77 80 94 138 10 34 14 80 12 126 -3 61 -10
86 -44 154 -38 76 -169 266 -184 267 -3 0 -22 -24 -41 -52z"/>
<path d="M3277 4464 c-171 -46 -239 -89 -286 -183 -26 -49 -33 -151 -11 -151
5 0 38 20 73 45 56 39 87 54 87 41 0 -2 -16 -37 -35 -79 -19 -42 -35 -79 -35
-83 0 -15 101 6 138 30 74 46 105 97 135 216 15 60 32 191 25 189 -2 -1 -43
-12 -91 -25z"/>
<path d="M1265 4278 c3 -143 24 -213 80 -272 38 -41 106 -75 147 -76 l27 0
-29 84 c-17 47 -30 87 -30 90 0 15 21 2 83 -49 76 -63 83 -61 81 31 -2 111
-84 202 -239 268 -138 57 -124 66 -120 -76z"/>
<path d="M1829 4359 c-3 -202 15 -280 83 -355 49 -54 169 -98 167 -61 0 6 -13
44 -28 82 -41 101 -30 105 62 25 65 -57 81 -50 75 33 -8 115 -60 184 -189 247
-42 20 -89 42 -105 47 -16 6 -37 14 -46 18 -16 6 -18 1 -19 -36z"/>
<path d="M2350 4148 c0 -2 -11 -33 -24 -69 -30 -82 -48 -167 -49 -228 -1 -83
69 -197 134 -220 l30 -10 -2 92 c-1 51 2 92 7 92 11 -1 83 -105 83 -121 1 -7
8 -15 17 -18 28 -11 57 74 52 154 -5 82 -31 130 -114 213 -54 54 -134 123
-134 115z"/>
<path d="M3430 4026 c-173 -45 -249 -96 -292 -194 -19 -41 -27 -127 -14 -140
3 -3 37 16 75 41 61 42 91 56 91 42 0 -2 -16 -37 -35 -78 -19 -41 -35 -77 -35
-80 0 -4 15 -7 33 -7 49 0 129 42 169 89 34 40 71 133 82 206 10 61 18 145 14
144 -1 0 -41 -11 -88 -23z"/>
<path d="M4077 4024 c-200 -54 -291 -132 -303 -263 -8 -79 4 -82 90 -22 86 59
91 55 46 -42 -16 -36 -30 -70 -30 -76 0 -17 61 -12 106 8 98 45 150 134 177
308 19 116 19 115 -86 87z"/>
<path d="M591 3982 c-63 -15 -101 -29 -101 -36 0 -36 162 -211 225 -244 58
-30 181 -26 225 8 l24 18 -24 21 c-14 11 -28 20 -32 21 -15 0 -83 52 -83 63 0
9 25 11 87 9 l88 -4 -11 31 c-15 43 -91 107 -149 126 -62 21 -123 17 -249 -13z"/>
<path d="M2828 3891 c-188 -194 -240 -321 -192 -480 16 -55 64 -119 81 -108 5
3 27 47 48 97 34 81 59 120 69 109 5 -5 13 -62 22 -149 3 -36 9 -71 13 -78 11
-20 83 38 120 98 69 113 73 224 11 389 -37 100 -77 188 -88 195 -4 3 -42 -30
-84 -73z"/>
<path d="M1871 3696 c3 -204 38 -323 118 -403 53 -53 136 -93 191 -93 48 0 48
-5 -6 125 -19 44 -34 88 -34 98 0 24 21 12 117 -64 41 -33 78 -59 83 -59 14 0
23 65 16 122 -3 29 -21 82 -38 116 -34 68 -82 115 -163 161 -53 30 -211 95
-258 107 l-28 6 2 -116z"/>
<path d="M1245 3763 c-11 -2 -55 -14 -97 -25 -90 -23 -89 -21 -10 -118 106
-129 175 -173 277 -173 57 -1 135 24 135 43 0 4 -33 29 -74 56 -41 26 -72 52
-69 57 3 4 41 6 86 3 44 -3 84 -3 88 0 12 7 -28 74 -60 101 -51 45 -106 63
-183 62 -40 -1 -82 -3 -93 -6z"/>
<path d="M3351 3498 c-123 -17 -228 -90 -277 -193 -25 -52 -32 -105 -14 -105
6 0 58 14 116 31 58 17 108 29 110 26 9 -9 -7 -30 -79 -107 -37 -40 -66 -78
-64 -83 6 -18 69 -29 133 -24 122 11 206 69 290 198 35 54 124 229 124 244 0
15 -250 25 -339 13z"/>
<path d="M3895 3441 c-88 -16 -161 -71 -196 -146 -22 -47 -24 -75 -6 -75 6 0
44 9 82 20 38 11 73 20 77 20 18 0 5 -19 -47 -75 -30 -32 -55 -61 -55 -65 0
-12 41 -22 84 -21 87 1 157 40 218 121 49 65 122 218 106 220 -36 6 -234 7
-263 1z"/>
<path d="M761 3339 c-29 -10 -74 -30 -99 -45 -51 -30 -142 -94 -142 -100 0 -8
128 -90 180 -115 66 -32 112 -43 164 -40 53 3 127 36 161 71 l28 29 -28 11
c-15 6 -48 15 -74 21 -102 22 -102 29 2 60 40 12 75 25 80 29 11 10 -23 45
-69 68 -58 30 -139 34 -203 11z"/>
<path d="M1585 3228 c-88 -15 -198 -57 -321 -121 -177 -91 -165 -81 -124 -118
19 -17 49 -43 65 -58 49 -44 156 -125 210 -158 156 -97 301 -113 451 -50 57
24 124 79 124 101 0 8 -46 30 -107 51 -138 49 -188 74 -176 86 10 10 110 33
188 43 67 9 105 18 111 27 8 13 -53 87 -99 120 -46 33 -134 68 -191 75 -23 3
-50 7 -61 8 -11 1 -42 -1 -70 -6z"/>
<path d="M4360 3213 c-51 -16 -102 -49 -116 -74 -14 -29 -14 -29 13 -30 117
-5 122 -9 48 -46 -56 -29 -56 -29 -35 -48 32 -29 119 -32 172 -6 42 20 167
126 158 134 -10 8 -97 45 -130 55 -46 14 -91 20 -110 15z"/>
<path d="M2557 3108 c-316 -447 -491 -817 -533 -1128 -3 -25 -10 -67 -14 -94
-9 -55 -5 -341 5 -401 39 -236 111 -485 208 -716 l45 -106 -62 -1 c-33 -1 -71
-3 -82 -6 -14 -3 -40 8 -71 29 -129 86 -250 79 -423 -25 -95 -57 -336 -235
-343 -253 -8 -23 -7 -142 1 -155 5 -8 47 -22 93 -33 46 -10 122 -28 169 -39
210 -50 436 -85 615 -96 238 -15 612 -4 764 21 13 2 45 7 70 11 92 13 575 134
609 153 24 14 -80 124 -173 185 -123 80 -209 98 -518 111 -191 8 -293 47 -377
142 -84 95 -126 217 -200 573 -60 287 -63 313 -44 379 18 61 74 114 164 157
156 74 196 96 270 148 89 64 179 146 248 226 63 74 165 220 158 227 -2 2 -64
-38 -139 -89 -398 -272 -507 -343 -612 -394 -38 -19 -81 -34 -95 -32 -22 3
-25 8 -24 43 1 147 36 326 100 530 27 83 204 592 229 658 8 20 13 37 11 37 -2
0 -24 -28 -49 -62z"/>
<path d="M2833 2990 c-54 -13 -121 -59 -153 -106 -32 -46 -51 -114 -32 -114 8
0 110 29 160 45 26 9 9 -23 -43 -78 -30 -31 -55 -61 -55 -66 0 -24 100 -27
167 -5 56 19 101 58 152 134 47 71 97 178 87 187 -10 10 -242 13 -283 3z"/>
<path d="M3610 2883 c-131 -13 -198 -28 -260 -59 -117 -59 -217 -186 -235
-300 -5 -30 -3 -43 7 -46 7 -3 70 12 138 33 126 39 180 48 180 29 0 -6 -35
-47 -77 -92 -124 -131 -133 -141 -133 -148 0 -28 175 -47 250 -28 181 46 283
153 428 446 71 146 72 151 2 153 -19 0 -55 3 -80 5 -63 6 -190 10 -220 7z"/>
<path d="M4126 2735 c-37 -13 -76 -41 -76 -56 0 -4 25 -13 55 -19 30 -6 55
-15 55 -19 0 -4 -25 -15 -56 -25 -44 -14 -53 -20 -44 -31 19 -23 82 -47 121
-47 42 1 127 39 177 80 l33 28 -48 31 c-103 66 -154 79 -217 58z"/>
<path d="M1029 2715 c-82 -30 -234 -125 -234 -147 0 -15 176 -123 231 -141 59
-19 139 -15 196 11 47 21 94 65 85 80 -5 7 -58 22 -136 37 -56 11 -39 26 59
55 41 12 77 24 79 26 3 2 -10 17 -28 34 -62 55 -172 75 -252 45z"/>
<path d="M1656 2549 c-58 -18 -243 -106 -252 -120 -10 -17 170 -161 251 -200
22 -11 68 -23 102 -28 74 -9 153 12 209 54 45 34 38 43 -65 79 -105 38 -111
42 -81 54 14 6 54 16 90 22 106 18 103 17 84 49 -35 59 -159 114 -243 109 -23
-1 -66 -9 -95 -19z"/>
</g>
</svg>
